<?xml version="1.0" encoding="utf-8"?>
<!-- Generator: $$$/GeneralStr/196=Adobe Illustrator 27.6.0, SVG Export Plug-In . SVG Version: 6.00 Build 0)  -->
<svg version="1.1" id="Livello_2_00000065780537530939675650000006942636203600291717_"
	 xmlns="http://www.w3.org/2000/svg" xmlns:xlink="http://www.w3.org/1999/xlink" x="0px" y="0px" viewBox="0 0 475.3 127.5"
	 style="enable-background:new 0 0 475.3 127.5;" xml:space="preserve">
<g id="Livello_2-2">
	<path d="M456.4,23.1h-2.5l-10.5,25.2h3.7l2.3-5.4h11.9l2.3,5.4h3.7L456.4,23.1z M451,39.4l4.4-10.9l4.7,10.9H451L451,39.4z"/>
	<rect x="471.8" y="23.1" width="3.5" height="25.2"/>
	<path d="M131.7,24.2h-9.5l-32.9,79.4h12.8l7.2-17h36.4l7.4,17h12.8L131.7,24.2z M113.9,75l13.3-32.1L140.9,75
		C140.9,75,113.9,75,113.9,75z"/>
	<path d="M292.8,24.2h-27.9v79.4h27.9c22.6,0,38.4-16.3,38.4-39.8S315.4,24.2,292.8,24.2 M292.8,91.8h-16.1V35.9h16.1
		c16.1,0,26.6,11,26.6,27.9S308.9,91.8,292.8,91.8"/>
	<path d="M392,34.9c15.6,0,27.6,12.3,28,28.2h11.9c-0.4-22.6-17.7-40.1-39.9-40.1l0,0l0,0c-21.9,0-39.2,17.7-39.6,40.1h11.7
		C364.4,47.3,376.6,34.9,392,34.9L392,34.9z"/>
	<path d="M391.9,81.5c-4.2,0-8.2-1.8-11.2-4.4h-26.5c5.3,16.1,19.8,27.5,37.7,27.5s32.6-11.4,37.8-27.5h-26.6
		C400.1,79.9,396.1,81.5,391.9,81.5L391.9,81.5z"/>
	<rect x="375.3" y="52.4" width="10.9" height="10.9"/>
	<rect x="397.9" y="52.4" width="10.9" height="10.9"/>
	<path d="M61.3,82.2c-5.3,6.7-13,10.5-21.5,10.5c-15.8,0-28-12.8-28-28.9s12.3-28.9,28-28.9l0,0c8.6,0,16.3,3.9,21.5,10.5h13.8
		l-0.3-0.7c-6.7-13.3-20.2-21.5-35-21.5l0,0C17.3,23.1,0,41.2,0,63.9s17.5,40.6,39.8,40.6c15.1,0,28.6-8.4,35.4-22.1l0.2-0.3
		C75.3,82.2,61.3,82.2,61.3,82.2z"/>
	<path d="M226.7,70.4c9.3-3.7,14.9-11.7,14.9-22.1c0-14.2-10.7-24.2-26.1-24.2h-30v79.4h11.7V72.3h17.3l17,31.2h13.5L226.7,70.4
		L226.7,70.4z M197.1,60.8v-25l18-0.2c9.1,0,14.5,4.9,14.5,12.6s-5.4,12.6-14.5,12.6L197.1,60.8L197.1,60.8z"/>
</g>
</svg>
